Coordinates
version=1
nRows=24
nColumns=24
inDegrees=yes

Units are S.I. units (second, meters, Newtons, ...)
Angles are in degrees.

endheader
time	pelvis_tilt	pelvis_list	pelvis_rotation	pelvis_tx	pelvis_ty	pelvis_tz	hip_flexion_r	hip_adduction_r	hip_rotation_r	knee_angle_r	ankle_angle_r	subtalar_angle_r	mtp_angle_r	hip_flexion_l	hip_adduction_l	hip_rotation_l	knee_angle_l	ankle_angle_l	subtalar_angle_l	mtp_angle_l	lumbar_extension	lumbar_bending	lumbar_rotation
      0.45800000	    -10.85330147	      0.02301129	     -0.25133913	     -0.76556068	      1.02859121	      0.30170633	     39.17278291	      0.66379573	     -3.73735967	    -18.50676893	      5.59842751	     -2.36452604	      7.35872547	     -1.78543567	     -0.00090388	     -0.38172952	    -13.54711543	     23.93911126	      8.22793905	      1.58363011	      0.05332689	     -0.51123628	     -2.24678751
      0.46216667	    -10.80034676	      0.05702092	     -0.17235454	     -0.75948306	      1.02739696	      0.30192511	     39.10632351	      0.65646899	     -3.45432003	    -18.46375002	      5.48984624	     -2.64241988	      7.35008385	     -1.98717966	      0.00385406	     -0.43172136	    -14.01902541	     24.07500739	      8.39912189	      1.61407645	      0.01204430	     -0.50730112	     -2.27706286
      0.46633333	    -10.78598814	      0.09038770	     -0.09650100	     -0.75335210	      1.02614572	      0.30218055	     39.08689261	      0.65439893	     -3.18264813	    -18.52302167	      5.37393939	     -2.94183796	      7.33820737	     -2.10446863	     -0.00714813	     -0.57535389	    -14.58631386	     24.23564361	      8.68566141	      1.68120392	      0.03752061	     -0.51057542	     -2.30410114
      0.47050000	    -10.69317596	      0.09169903	     -0.02401038	     -0.74718419	      1.02507320	      0.30241957	     38.98247753	      0.68042951	     -2.95628826	    -18.66823034	      5.25992650	     -3.22194584	      7.32482585	     -2.29351041	     -0.05733918	     -0.73854248	    -15.18779866	     24.37556692	      8.99146172	      1.78430563	     -0.04122146	     -0.46086413	     -2.32606036
      0.47466667	    -10.63771764	      0.10400723	      0.04899147	     -0.74098470	      1.02396213	      0.30267884	     38.92443774	      0.70146276	     -2.71357532	    -18.90755032	      5.13648369	     -3.54564757	      7.30936061	     -2.41906691	     -0.10170580	     -0.90459260	    -15.83566866	     24.48583077	      9.32461917	      1.92483467	     -0.06832675	     -0.41807458	     -2.34549602
      0.47883333	    -10.56188001	      0.10808786	      0.11618377	     -0.73475658	      1.02290686	      0.30296142	     38.85078458	      0.73376584	     -2.50279562	    -19.23392257	      5.01229209	     -3.87516617	      7.29311991	     -2.54035092	     -0.16376851	     -1.09792458	    -16.54961243	     24.58999467	      9.68706589	      2.11216893	     -0.11123497	     -0.37219359	     -2.36364434
      0.48300000	    -10.47048083	      0.10900588	      0.17622656	     -0.72850854	      1.02192544	      0.30325711	     38.76215550	      0.77534199	     -2.29679871	    -19.62880560	      4.87756094	     -4.21169818	      7.27692672	     -2.65604599	     -0.23217910	     -1.28558102	    -17.30837775	     24.64158165	     10.04795939	      2.32657656	     -0.17805907	     -0.30469616	     -2.37475348
      0.48716667	    -10.38583738	      0.09738195	      0.23820625	     -0.72222079	      1.02096846	      0.30357230	     38.68095752	      0.82972759	     -2.11066044	    -20.09065342	      4.72714687	     -4.57971561	      7.25865261	     -2.72657333	     -0.33001836	     -1.53874065	    -18.14434751	     24.68252821	     10.46855530	      2.61166698	     -0.22356527	     -0.23642367	     -2.38478767
      0.49133333	    -10.27875151	      0.08457177	      0.28901625	     -0.71592514	      1.02008445	      0.30391259	     38.58234922	      0.89319093	     -1.93178866	    -20.61680751	      4.57894402	     -4.93993865	      7.23994387	     -2.80477579	     -0.43272411	     -1.78210347	    -19.01826831	     24.67461555	     10.87946636	      2.92827793	     -0.29582058	     -0.16096226	     -2.38289422
      0.49550000	    -10.17815305	      0.06495338	      0.33880324	     -0.70961514	      1.01923116	      0.30427803	     38.49346035	      0.96538025	     -1.77020676	    -21.19631462	      4.42511328	     -5.30617453	      7.21750248	     -2.83496755	     -0.55542988	     -2.05643075	    -19.97408088	     24.63141453	     11.31763586	      3.30861380	     -0.35813925	     -0.06965436	     -2.37456782
      0.49966667	    -10.07235787	      0.04292881	      0.37920782	     -0.70330039	      1.01842774	      0.30467879	     38.40419394	      1.04720484	     -1.61277943	    -21.82629771	      4.27661338	     -5.67154870	      7.19114917	     -2.84085796	     -0.69010991	     -2.34361708	    -20.99001438	     24.54059475	     11.76321910	      3.74181465	     -0.42870552	      0.02402141	     -2.35711380
      0.50383333	     -9.93712207	      0.03336036	      0.41914504	     -0.69699518	      1.01771195	      0.30505571	     38.30840298	      1.10505174	     -1.52932197	    -22.54626886	      4.22348748	     -5.88835772	      6.95921869	     -2.85477396	     -0.81182177	     -2.59916962	    -22.03187144	     24.30724706	     12.13427372	      8.04859266	     -0.54226839	      0.11387454	     -2.31165877
      0.50800000	     -9.83882874	      0.00538119	      0.44969368	     -0.69069610	      1.01700114	      0.30552265	     38.22241379	      1.21001140	     -1.33510297	    -23.22263985	      4.04552553	     -6.35776869	      6.94312151	     -2.78876953	     -0.96531571	     -2.86341774	    -23.16766600	     24.09181738	     12.49951188	      8.14160539	     -0.59556233	      0.20825762	     -2.30254427
      0.51216667	     -9.71798750	     -0.02398181	      0.47175270	     -0.68439944	      1.01635712	      0.30599311	     38.13329316	      1.30918830	     -1.21433182	    -23.97108110	      3.97367031	     -6.66636045	      6.92252019	     -2.70740070	     -1.13674627	     -3.18603491	    -24.37308189	     23.84862205	     12.97144067	      8.31140839	     -0.68176866	      0.31453107	     -2.25758643
      0.51633333	     -9.61457366	     -0.05298674	      0.48984058	     -0.67811965	      1.01574500	      0.30649651	     38.06211551	      1.41413831	     -1.08173723	    -24.73536471	      3.91513971	     -6.99113982	      6.89381389	     -2.57097432	     -1.31488899	     -3.49109667	    -25.64371961	     23.53120173	     13.39772364	      8.52776555	     -0.74942389	      0.41831701	     -2.21496214
      0.52050000	     -9.50028771	     -0.09555372	      0.50300142	     -0.67184223	      1.01521247	      0.30701510	     37.97431437	      1.53517103	     -0.95975046	    -25.50834327	      3.90647924	     -7.30521138	      6.43215997	     -2.41930538	     -1.51548789	     -3.78679981	    -26.94891762	     23.04117872	     13.74402381	     11.98882863	     -0.82768742	      0.55084042	     -2.14732201
      0.52466667	     -9.38722438	     -0.10620173	      0.51402254	     -0.66561861	      1.01471685	      0.30754266	     37.90212177	      1.62366938	     -0.84369990	    -26.32200540	      3.99932476	     -7.52900673	      6.42547931	     -2.22826799	     -1.68333791	     -4.05107906	    -28.31763794	     22.55861111	     14.12087760	     12.03964948	     -0.92081067	      0.63872269	     -2.10743608
      0.52883333	     -9.27417345	     -0.16866582	      0.50987905	     -0.65939004	      1.01427503	      0.30811240	     37.80987188	      1.76931188	     -0.75252491	    -27.10037257	      4.04612942	     -7.76581500	      6.40287996	     -1.99201364	     -1.93241929	     -4.39312511	    -29.77960366	     22.07541411	     14.51171968	     12.16351165	     -0.99397791	      0.78300122	     -2.03479926
      0.53300000	     -9.17417604	     -0.21700783	      0.50583819	     -0.65319436	      1.01388031	      0.30868322	     37.72646080	      1.90225571	     -0.65285180	    -27.87863885	      4.17147934	     -7.98214902	      6.36805937	     -1.71089008	     -2.16724521	     -4.69240674	    -31.27580121	     21.47237382	     14.85529733	     12.34512065	     -1.06467712	      0.91811037	     -1.96435171
      0.53716667	     -9.07089189	     -0.26617071	      0.49575737	     -0.64703102	      1.01354740	      0.30926550	     37.62885876	      2.03739379	     -0.56040938	    -28.64063674	      4.35624702	     -8.15753723	      6.32658408	     -1.40215083	     -2.40706505	     -4.97049025	    -32.81890397	     20.79125857	     15.14475752	     12.55262987	     -1.13790727	      1.05215995	     -1.89061660
      0.54133333	     -8.95608456	     -0.32076616	      0.48937297	     -0.64090525	      1.01331392	      0.30982726	     37.50206474	      2.17326518	     -0.48209502	    -29.37490346	      4.58819453	     -8.32097335	      5.45012924	     -1.07435461	     -2.65338559	     -5.20924981	    -34.38187989	     19.95013671	     15.31526724	     16.32884388	     -1.23759460	      1.20234136	     -1.78993833
      0.54550000	     -8.85847429	     -0.37511625	      0.46981223	     -0.63480579	      1.01310533	      0.31040331	     37.37967627	      2.31099959	     -0.41156579	    -30.08412931	      4.87893329	     -8.41153089	      5.44696553	     -0.69896326	     -2.90398269	     -5.44950223	    -35.99584845	     19.14957392	     15.49800143	     16.35202769	     -1.31067340	      1.35212294	     -1.72630774
      0.54966667	     -8.73671594	     -0.42375854	      0.46022916	     -0.62875853	      1.01302992	      0.31092313	     37.21261288	      2.42993385	     -0.36930454	    -30.75715192	      5.19352358	     -8.53494278	      5.44563483	     -0.32253444	     -3.13747369	     -5.62523192	    -37.62269867	     18.24003273	     15.52621856	     16.36336807	     -1.41817978	      1.50184160	     -1.66097122
      0.55383333	     -8.67481014	     -0.50690978	      0.43266125	     -0.62272659	      1.01288309	      0.31150418	     37.08176541	      2.59430922	     -0.31563309	    -31.37282360	      5.53850276	     -8.56025434	      5.42060696	      0.15744722	     -3.43515625	     -5.86133097	    -39.32076688	     17.37459646	     15.70355221	     16.43182224	     -1.45829083	      1.68074829	     -1.55027316
